<svg width="289.30625px" height="119.6px" xmlns="http://www.w3.org/2000/svg" viewBox="105.34687500000001 15.200000000000003 289.30625 119.6" style="background: rgba(0, 0, 0, 0);" preserveAspectRatio="xMidYMid"><defs><linearGradient id="editing-gradient-gradient" x1="0" x2="1" y1="0.5" y2="0.5" gradientUnits="objectBoundingBox"><stop offset="0" stop-color="#000000"></stop><stop offset="1" stop-color="#000000"></stop></linearGradient></defs><g><g transform="translate(150.54500579833984, 96.47000312805176)"><path d="M3.84 0.19L3.84 0.19Q3.33 0.19 3.04-0.22L3.04-0.22L3.04-0.22Q2.75-0.64 2.75-1.22L2.75-1.22L2.75-1.22Q2.82-2.18 3.14-2.37L3.14-2.37L3.14-2.37Q3.46-2.56 4.35-2.56L4.35-2.56L4.35-2.56Q6.21-2.56 7.10-3.23L7.10-3.23L7.10-3.23Q8-3.90 8.22-4.90L8.22-4.90L8.22-4.90Q8.45-5.89 8.51-7.49L8.51-7.49L8.51-32.90L8.51-32.90Q8.45-34.50 8.22-35.49L8.22-35.49L8.22-35.49Q8-36.48 7.10-37.15L7.10-37.15L7.10-37.15Q6.21-37.82 4.35-37.82L4.35-37.82L3.97-37.82L3.97-37.82Q3.33-37.82 3.07-38.05L3.07-38.05L3.07-38.05Q2.82-38.27 2.75-39.17L2.75-39.17L2.75-39.17Q2.75-39.74 3.04-40.16L3.04-40.16L3.04-40.16Q3.33-40.58 3.84-40.58L3.84-40.58L3.84-40.58Q8.06-40.38 11.46-40.38L11.46-40.38L11.46-40.38Q15.30-40.38 19.46-40.58L19.46-40.58L19.46-40.58Q20.03-40.58 20.32-40.16L20.32-40.16L20.32-40.16Q20.61-39.74 20.61-39.17L20.61-39.17L20.61-39.17Q20.54-38.21 20.19-38.02L20.19-38.02L20.19-38.02Q19.84-37.82 19.01-37.82L19.01-37.82L19.01-37.82Q17.15-37.82 16.26-37.15L16.26-37.15L16.26-37.15Q15.36-36.48 15.14-35.49L15.14-35.49L15.14-35.49Q14.91-34.50 14.85-32.90L14.85-32.90L14.85-6.53L14.85-6.53Q14.98-5.18 15.17-4.45L15.17-4.45L15.17-4.45Q15.36-3.71 16.32-3.10L16.32-3.10L16.32-3.10Q17.28-2.50 19.33-2.56L19.33-2.56L25.09-2.56L25.09-2.56Q27.33-2.62 28.48-3.30L28.48-3.30L28.48-3.30Q29.63-3.97 30.30-5.38L30.30-5.38L30.30-5.38Q30.98-6.78 31.94-9.98L31.94-9.98L31.94-9.98Q32.38-11.14 34.11-10.88L34.11-10.88L34.11-10.88Q34.69-10.75 35.20-10.37L35.20-10.37L35.20-10.37Q35.71-9.98 35.65-9.41L35.65-9.41L34.37-1.34L34.37-1.34Q34.18-0.51 33.79-0.26L33.79-0.26L33.79-0.26Q33.41 0 32.51 0L32.51 0L11.52 0L11.52 0Q8.06 0 3.84 0.19L3.84 0.19ZM59.97 1.28L59.97 1.28Q53.89 1.28 49.25-1.63L49.25-1.63L49.25-1.63Q44.61-4.54 42.08-9.34L42.08-9.34L42.08-9.34Q39.55-14.14 39.55-19.65L39.55-19.65L39.55-19.65Q39.55-26.37 42.59-31.36L42.59-31.36L42.59-31.36Q45.63-36.35 50.37-39.01L50.37-39.01L50.37-39.01Q55.10-41.66 59.97-41.66L59.97-41.66L59.97-41.66Q66.11-41.66 70.82-38.75L70.82-38.75L70.82-38.75Q75.52-35.84 78.05-31.07L78.05-31.07L78.05-31.07Q80.58-26.30 80.58-20.80L80.58-20.80L80.58-20.80Q80.58-14.08 77.50-9.06L77.50-9.06L77.50-9.06Q74.43-4.03 69.63-1.38L69.63-1.38L69.63-1.38Q64.83 1.28 59.97 1.28L59.97 1.28ZM59.90-1.54L59.90-1.54Q64.26-1.54 67.17-4.13L67.17-4.13L67.17-4.13Q70.08-6.72 71.52-11.10L71.52-11.10L71.52-11.10Q72.96-15.49 72.96-20.80L72.96-20.80L72.96-20.80Q72.96-25.73 71.49-29.86L71.49-29.86L71.49-29.86Q70.02-33.98 67.07-36.45L67.07-36.45L67.07-36.45Q64.13-38.91 59.90-38.91L59.90-38.91L59.90-38.91Q53.50-38.91 50.27-33.50L50.27-33.50L50.27-33.50Q47.04-28.10 47.04-19.84L47.04-19.84L47.04-19.84Q47.04-14.85 48.48-10.69L48.48-10.69L48.48-10.69Q49.92-6.53 52.80-4.03L52.80-4.03L52.80-4.03Q55.68-1.54 59.90-1.54L59.90-1.54ZM106.56 1.28L106.56 1.28Q100.99 1.28 96.48-1.06L96.48-1.06L96.48-1.06Q91.97-3.39 89.34-8.16L89.34-8.16L89.34-8.16Q86.72-12.93 86.72-19.90L86.72-19.90L86.72-19.90Q86.72-26.37 89.57-31.30L89.57-31.30L89.57-31.30Q92.42-36.22 97.47-38.94L97.47-38.94L97.47-38.94Q102.53-41.66 109.06-41.66L109.06-41.66L109.06-41.66Q112.26-41.66 115.39-40.70L115.39-40.70L115.39-40.70Q118.53-39.74 120.58-37.70L120.58-37.70L120.58-37.70Q122.62-35.65 122.62-32.64L122.62-32.64L122.62-32.64Q122.62-29.82 120.96-27.78L120.96-27.78L120.96-27.78Q119.30-25.73 116.54-25.73L116.54-25.73L116.54-25.73Q115.20-25.73 113.95-26.37L113.95-26.37L113.95-26.37Q112.70-27.01 112.64-28.03L112.64-28.03L112.64-28.03Q112.64-28.10 113.50-28.74L113.50-28.74L113.50-28.74Q114.37-29.38 115.10-30.46L115.10-30.46L115.10-30.46Q115.84-31.55 115.84-33.09L115.84-33.09L115.84-33.09Q115.84-35.78 113.73-37.44L113.73-37.44L113.73-37.44Q111.62-39.10 108.29-39.10L108.29-39.10L108.29-39.10Q104.32-39.10 101.12-36.90L101.12-36.90L101.12-36.90Q97.92-34.69 96.06-30.43L96.06-30.43L96.06-30.43Q94.21-26.18 94.21-20.29L94.21-20.29L94.21-20.29Q94.21-14.59 96.03-10.43L96.03-10.43L96.03-10.43Q97.86-6.27 101.15-4.06L101.15-4.06L101.15-4.06Q104.45-1.86 108.80-1.86L108.80-1.86L108.80-1.86Q110.85-1.86 112.38-2.08L112.38-2.08L112.38-2.08Q113.92-2.30 115.71-2.88L115.71-2.88L115.71-9.41L115.71-9.41Q115.71-11.65 115.55-12.54L115.55-12.54L115.55-12.54Q115.39-13.44 114.53-13.89L114.53-13.89L114.53-13.89Q113.66-14.34 111.62-14.34L111.62-14.34L111.62-14.34Q110.91-14.34 110.59-14.56L110.59-14.56L110.59-14.56Q110.27-14.78 110.21-15.68L110.21-15.68L110.21-15.68Q110.21-16.26 110.56-16.67L110.56-16.67L110.56-16.67Q110.91-17.09 111.55-17.09L111.55-17.09L111.55-17.09Q115.58-16.90 118.59-16.90L118.59-16.90L118.59-16.90Q121.47-16.90 125.50-17.09L125.50-17.09L125.50-17.09Q126.08-17.09 126.40-16.67L126.40-16.67L126.40-16.67Q126.72-16.26 126.72-15.68L126.72-15.68L126.72-15.68Q126.66-14.78 126.34-14.56L126.34-14.56L126.34-14.56Q126.02-14.34 125.31-14.34L125.31-14.34L125.31-14.34Q123.39-14.34 122.56-13.82L122.56-13.82L122.56-13.82Q121.73-13.31 121.54-12.38L121.54-12.38L121.54-12.38Q121.34-11.46 121.34-9.41L121.34-9.41L121.34-1.86L121.34-1.86Q117.57-0.06 114.43 0.61L114.43 0.61L114.43 0.61Q111.30 1.28 106.56 1.28L106.56 1.28ZM131.71 0.19L131.71 0.19Q131.14 0.19 130.85-0.22L130.85-0.22L130.85-0.22Q130.56-0.64 130.56-1.22L130.56-1.22L130.56-1.22Q130.62-2.18 130.98-2.37L130.98-2.37L130.98-2.37Q131.33-2.56 132.16-2.56L132.16-2.56L132.16-2.56Q134.02-2.56 134.91-3.23L134.91-3.23L134.91-3.23Q135.81-3.90 136.06-4.86L136.06-4.86L136.06-4.86Q136.32-5.82 136.38-7.49L136.38-7.49L136.38-32.90L136.38-32.90Q136.32-34.56 136.06-35.52L136.06-35.52L136.06-35.52Q135.81-36.48 134.91-37.15L134.91-37.15L134.91-37.15Q134.02-37.82 132.16-37.82L132.16-37.82L131.78-37.82L131.78-37.82Q131.20-37.82 130.91-38.05L130.91-38.05L130.91-38.05Q130.62-38.27 130.56-39.17L130.56-39.17L130.56-39.17Q130.56-39.74 130.85-40.16L130.85-40.16L130.85-40.16Q131.14-40.58 131.71-40.58L131.71-40.58L131.71-40.58Q135.87-40.38 139.33-40.38L139.33-40.38L139.33-40.38Q143.17-40.38 147.33-40.58L147.33-40.58L147.33-40.58Q147.90-40.58 148.19-40.16L148.19-40.16L148.19-40.16Q148.48-39.74 148.48-39.17L148.48-39.17L148.48-39.17Q148.42-38.21 148.06-38.02L148.06-38.02L148.06-38.02Q147.71-37.82 146.82-37.82L146.82-37.82L146.82-37.82Q144.96-37.82 144.06-37.15L144.06-37.15L144.06-37.15Q143.17-36.48 142.94-35.49L142.94-35.49L142.94-35.49Q142.72-34.50 142.66-32.90L142.66-32.90L142.66-7.49L142.66-7.49Q142.72-5.89 142.94-4.90L142.94-4.90L142.94-4.90Q143.17-3.90 144.06-3.23L144.06-3.23L144.06-3.23Q144.96-2.56 146.82-2.56L146.82-2.56L147.20-2.56L147.20-2.56Q147.84-2.56 148.13-2.34L148.13-2.34L148.13-2.34Q148.42-2.11 148.48-1.22L148.48-1.22L148.48-1.22Q148.48-0.64 148.19-0.22L148.19-0.22L148.19-0.22Q147.90 0.19 147.33 0.19L147.33 0.19L147.33 0.19Q143.23 0 139.39 0L139.39 0L139.39 0Q135.87 0 131.71 0.19L131.71 0.19ZM155.14 0.19L155.14 0.19Q154.56 0.19 154.27-0.22L154.27-0.22L154.27-0.22Q153.98-0.64 153.98-1.22L153.98-1.22L153.98-1.22Q154.05-2.18 154.37-2.37L154.37-2.37L154.37-2.37Q154.69-2.56 155.58-2.56L155.58-2.56L155.58-2.56Q157.44-2.56 158.30-3.23L158.30-3.23L158.30-3.23Q159.17-3.90 159.36-4.83L159.36-4.83L159.36-4.83Q159.55-5.76 159.62-7.49L159.62-7.49L159.74-32.90L159.74-32.90Q159.74-34.82 159.33-35.81L159.33-35.81L159.33-35.81Q158.91-36.80 158.02-37.25L158.02-37.25L158.02-37.25Q157.12-37.70 155.46-38.02L155.46-38.02L155.46-38.02Q154.37-38.21 154.11-38.40L154.11-38.40L154.11-38.40Q153.86-38.59 153.86-39.49L153.86-39.49L153.86-39.49Q153.86-40.26 154.27-40.51L154.27-40.51L154.27-40.51Q154.69-40.77 155.58-40.77L155.58-40.77L155.58-40.77Q159.55-40.77 161.86-40.22L161.86-40.22L161.86-40.22Q164.16-39.68 165.92-38.27L165.92-38.27L165.92-38.27Q167.68-36.86 169.79-33.98L169.79-33.98L187.33-10.94L187.52-10.94L187.39-32.90L187.39-32.90Q187.33-34.62 187.14-35.55L187.14-35.55L187.14-35.55Q186.94-36.48 186.08-37.15L186.08-37.15L186.08-37.15Q185.22-37.82 183.36-37.82L183.36-37.82L182.98-37.82L182.98-37.82Q182.34-37.82 182.05-38.05L182.05-38.05L182.05-38.05Q181.76-38.27 181.70-39.17L181.70-39.17L181.70-39.17Q181.70-39.74 182.02-40.16L182.02-40.16L182.02-40.16Q182.34-40.58 182.85-40.58L182.85-40.58L182.85-40.58Q186.94-40.38 188.99-40.38L188.99-40.38L188.99-40.38Q190.21-40.38 193.66-40.51L193.66-40.51L195.01-40.58L195.01-40.58Q195.58-40.58 195.87-40.16L195.87-40.16L195.87-40.16Q196.16-39.74 196.16-39.17L196.16-39.17L196.16-39.17Q196.10-38.21 195.78-38.02L195.78-38.02L195.78-38.02Q195.46-37.82 194.56-37.82L194.56-37.82L194.56-37.82Q192.70-37.82 191.84-37.15L191.84-37.15L191.84-37.15Q190.98-36.48 190.78-35.55L190.78-35.55L190.78-35.55Q190.59-34.62 190.53-32.90L190.53-32.90L190.40-0.64L190.40-0.64Q190.34 0.19 188.80 0.19L188.80 0.19L188.80 0.19Q187.58 0.19 186.94-0.64L186.94-0.64L162.82-32.90L162.62-32.90L162.75-7.49L162.75-7.49Q162.82-5.76 163.01-4.83L163.01-4.83L163.01-4.83Q163.20-3.90 164.06-3.23L164.06-3.23L164.06-3.23Q164.93-2.56 166.78-2.56L166.78-2.56L167.17-2.56L167.17-2.56Q167.81-2.56 168.10-2.34L168.10-2.34L168.10-2.34Q168.38-2.11 168.45-1.22L168.45-1.22L168.45-1.22Q168.45-0.64 168.16-0.22L168.16-0.22L168.16-0.22Q167.87 0.19 167.30 0.19L167.30 0.19L167.30 0.19Q163.20 0 161.09 0L161.09 0L161.09 0Q159.81 0 156.61 0.13L156.61 0.13L155.14 0.19Z" fill="url(#editing-gradient-gradient)"></path></g></g><style>text {
  font-size: 64px;
  font-family: Arial Black;
  dominant-baseline: central;
  text-anchor: middle;
}</style></svg>